# xmcd
#
# Track frame offsets:
#	150
#	26955
#	38775
#	51717
#	59167
#	73462
#	87089
#	111244
#	139297
#	161587
#	177702
#	200259
#	213154
#	230345
#	251501
#	262446
#	274993
#	294345
#
# Disc length: 4034
#
# Revision: 1
# Processed by: cddbd v1.5.1PL0 Copyright (c) Steve Scherf et al.
# Submitted via: ExactAudioCopy v0.95a3
# Normalized: r0:TRMNUM
#
DISCID=2e0fc012
DTITLE=Various Artist - Tecnolandia 2004
DYEAR=2004
DGENRE=Acid Jazz
TTITLE0=Joris Voorn - Lyscious
TTITLE1=Philip Braunstein - Beautiful Body
TTITLE2=Bando - Tres
TTITLE3=Marco Carola - 11th Question B2
TTITLE4=Hardcell - Mental Notch
TTITLE5=Markantonio - Everlasting Brain
TTITLE6=Valentino Kanzyani - Sala Global
TTITLE7=Oxia - Nuits Blanches
TTITLE8=Andrei Morant - Sushi
TTITLE9=Markantonio - Impress
TTITLE10=W.J. Henze - 50º11´56
TTITLE11=Marco Carola - 11th Question B1
TTITLE12=Monika Kruse - Latin Lovers
TTITLE13=Hertz and Rowdy Sparks - Delicado
TTITLE14=Dj Mary - Drumatic
TTITLE15=Jim Masters - Cocaine
TTITLE16=Rob Stow - Fight
TTITLE17=Cohen Vs Deluxe - Just Kick
EXTD=
EXTT0=
EXTT1=
EXTT2=
EXTT3=
EXTT4=
EXTT5=
EXTT6=
EXTT7=
EXTT8=
EXTT9=
EXTT10=
EXTT11=
EXTT12=
EXTT13=
EXTT14=
EXTT15=
EXTT16=
EXTT17=
PLAYORDER=
